<svg xmlns="http://www.w3.org/2000/svg" xmlns:xlink="http://www.w3.org/1999/xlink" width="860" height="559.33"><rect width="860" height="559.33" class="a" rx="5" ry="5"/><svg x="0%" y="0%"><circle cx="20" cy="20" r="6" class="b"/><circle cx="40" cy="20" r="6" class="c"/><circle cx="60" cy="20" r="6" class="d"/></svg><svg xmlns="http://www.w3.org/2000/svg" xmlns:xlink="http://www.w3.org/1999/xlink" width="820" height="499.33" x="15" y="50" viewBox="0 0 82 49.933"><style>@keyframes bq{0%{transform:translateX(-164px)}24.9%{transform:translateX(-246px)}25.6%{transform:translateX(-328px)}26.1%{transform:translateX(-410px)}27%{transform:translateX(-492px)}28%{transform:translateX(-574px)}28.6%{transform:translateX(-656px)}29.5%{transform:translateX(-738px)}30.4%{transform:translateX(-820px)}31%{transform:translateX(-902px)}31.6%{transform:translateX(-984px)}32.4%{transform:translateX(-1066px)}33%{transform:translateX(-1148px)}33.6%{transform:translateX(-1230px)}34.5%{transform:translateX(-1312px)}42.5%{transform:translateX(-1558px)}63.4%{transform:translateX(-1886px)}65.7%{transform:translateX(-1968px)}65.8%{transform:translateX(-2050px)}66.2%{transform:translateX(-2132px)}66.4%{transform:translateX(-2214px)}66.9%{transform:translateX(-2296px)}67%{transform:translateX(-2378px)}67.2%{transform:translateX(-2542px)}67.5%{transform:translateX(-2706px)}68.1%{transform:translateX(-2952px)}68.3%{transform:translateX(-3198px)}74.6%{transform:translateX(-3444px)}75%{transform:translateX(-3608px)}75.3%{transform:translateX(-3854px)}78.7%{transform:translateX(-3936px)}78.8%{transform:translateX(-4100px)}96.2%{transform:translateX(-4182px)}97.6%{transform:translateX(-4264px)}98.2%{transform:translateX(-4346px)}99.2%{transform:translateX(-4428px)}}.a{fill:#282d35}.b{fill:#ff5f58}.c{fill:#ffbd2e}.d{fill:#18c132}.e{font-family:Monaco,Consolas,Menlo,&apos;Bitstream Vera Sans Mono&apos;,&apos;Powerline Symbols&apos;,monospace}.f,.g{font-weight:700}.f{fill:#66c2cd;white-space:pre}.g{fill:#b9c0cb}.g,.h,.i{white-space:pre}.h{fill:#d290e4}.h,.i,.j{font-weight:700}.i{fill:#e88388}.j{white-space:pre}.j,.k{fill:#a8cc8c}.k,.l,.m,.n,.o,.p{white-space:pre}.l{fill:#6f7783}.m{fill:#b9c0cb}.n{fill:#77a8d2}.o{fill:#78afd0}.p{fill:#78b6cf}.q{fill:#79c4cc}.q,.r,.s,.t,.u,.v{white-space:pre}.r{fill:#8bbfc5}.s{fill:#b0a8bc}.t{fill:#c29cb7}.u{fill:#d490b3}.v{fill:#79cbca}.w,.x{fill:#545dd7}.x,.y,.z{white-space:pre}.y{fill:#545cd6}.z{fill:#555bd5}.A{fill:#555bd3}.A,.B,.C,.D,.E,.F{white-space:pre}.B{fill:#555ad2}.C{fill:#5659d1}.D{fill:#5658d0}.E{fill:#5657cf}.F{fill:#5757cd}.G{fill:#5756cc}.G,.H,.I,.J,.K,.L{white-space:pre}.H{fill:#5755cb}.I{fill:#5854ca}.J{fill:#5853c9}.K{fill:#5953c8}.L{fill:#5952c6}.M{fill:#5951c5}.M,.N,.O,.P,.Q,.R{white-space:pre}.N{fill:#5a50c4}.O{fill:#5a4fc3}.P{fill:#5a4ec2}.Q{fill:#5b4ec0}.R{fill:#5b4dbf}.S{fill:#5b4cbe}.S,.T,.U,.V,.W,.X{white-space:pre}.T{fill:#5c4bbd}.U{fill:#5c4abc}.V{fill:#5c4aba}.W{fill:#5d49b9}.X{fill:#5d48b8}.Y{fill:#5d47b7}.Y,.Z,.aa,.ab,.ac{white-space:pre}.Z{fill:#5e46b6}.aa{fill:#5e46b4}.ab{fill:#5e45b3}.ac{fill:#5f44b2}.ad{fill:#5f43b1}.ad,.ae,.af,.ag{white-space:pre}.ae{fill:#5f42b0}.af{fill:#6042ae}.ag{fill:#6041ad}.ah{fill:#6040ac}.ah,.ai,.aj,.ak{white-space:pre}.ai{fill:#613fab}.aj{fill:#613eaa}.ak{fill:#623ea9}.al{fill:#623da7}.al,.am,.an,.ao{white-space:pre}.am{fill:#623ca6}.an{fill:#633ba5}.ao{fill:#633aa4}.ap{fill:#6339a3}.ap,.aq,.ar,.as{white-space:pre}.aq{fill:#6439a1}.ar{fill:#6438a0}.as{fill:#64379f}.at{fill:#65369e}.at,.au,.av,.aw{white-space:pre}.au{fill:#65359d}.av{fill:#65359b}.aw{fill:#66349a}.ax{fill:#639}.ax,.ay,.az{white-space:pre}.ay{fill:#71bef2;font-weight:700}.az{fill:#6c758f}.aA{fill:#46d46a}.aA,.aB,.aC,.aD{white-space:pre}.aB{fill:#555cd5}.aC{fill:#555bd4}.aD{fill:#555ad3}.aE{fill:#5659d2}.aE,.aF,.aG,.aH{white-space:pre}.aF{fill:#5659d0}.aG{fill:#5658cf}.aH{fill:#5757ce}.aI{fill:#5756cd}.aI,.aJ,.aK,.aL{white-space:pre}.aJ{fill:#5853c8}.aK{fill:#5952c7}.aL{fill:#5951c6}.aM{fill:#5950c5}.aM,.aN,.aO,.aP{white-space:pre}.aN{fill:#5a50c3}.aO{fill:#5a4fc2}.aP{fill:#5a4ec1}.aQ{fill:#5c4bbc}.aQ,.aR,.aS,.aT{white-space:pre}.aR{fill:#5c4abb}.aS{fill:#5d49ba}.aT{fill:#5d48b9}.aU{fill:#5d48b7}.aU,.aV,.aW,.aX{white-space:pre}.aV{fill:#5d47b6}.aW{fill:#5e46b5}.aX{fill:#5e45b4}.aY{fill:#6042af}.aY,.aZ,.ba,.bb{white-space:pre}.aZ{fill:#6041ae}.ba{fill:#6040ad}.bb{fill:#6140ab}.bc{fill:#613faa}.bc,.bd,.be,.bf{white-space:pre}.bd{fill:#613ea9}.be{fill:#623da8}.bf{fill:#633aa3}.bg{fill:#6339a2}.bg,.bh,.bi,.bj{white-space:pre}.bh{fill:#6438a1}.bi{fill:#6437a0}.bj{fill:#64379e}.bk{fill:#65369d}.bk,.bl,.bm,.bn{white-space:pre}.bl{fill:#65359c}.bm{fill:#65349b}.bn{fill:#dbab79;font-weight:700}.bo{fill:transparent}.bp{fill:#6f7683}.br{animation-duration:15.044129000000002s;animation-iteration-count:infinite;animation-name:bq;animation-timing-function:steps(1,end)}</style><g class="e" font-family="Monaco, Consolas, Menlo, 'Bitstream Vera Sans Mono', 'Powerline Symbols', monospace" font-size="1.67"><defs><symbol id="1"><text x="0" y="1.67" class="f">bud/examples/basic</text><text x="19.038" y="1.67" class="g">on</text><text x="22.044" y="1.67" class="h"></text><text x="24.048" y="1.67" class="h">test-api</text><text x="33.066" y="1.67" class="i">[$!?]</text></symbol><symbol id="2"><text x="0" y="1.67" class="j">➜</text></symbol><symbol id="3"><text x="0" y="1.67" class="j">➜</text><text x="2.004" y="1.67" class="k">yarn</text><text x="7.014" y="1.67" class="l">bud</text><text x="11.022" y="1.67" class="l">build</text></symbol><symbol id="4"><text x="0" y="1.67" class="j">➜</text><text x="2.004" y="1.67" class="k">yarn</text><text x="7.014" y="1.67" class="m">bud</text><text x="11.022" y="1.67" class="l">build</text></symbol><symbol id="5"><text x="0" y="1.67" class="j">➜</text><text x="2.004" y="1.67" class="k">yarn</text><text x="7.014" y="1.67" class="m">bud</text><text x="11.022" y="1.67" class="m">build</text></symbol><symbol id="6"><text x="1.002" y="1.67" class="n">█</text><text x="2.004" y="1.67" class="o">▄</text><text x="3.006" y="1.67" class="p">▄</text><text x="5.01" y="1.67" class="q">█</text><text x="7.014" y="1.67" class="r">█</text><text x="9.018" y="1.67" class="s">█</text><text x="10.02" y="1.67" class="t">▀</text><text x="11.022" y="1.67" class="u">▄</text></symbol><symbol id="7"><text x="1.002" y="1.67" class="n">█</text><text x="2.004" y="1.67" class="o">▄</text><text x="3.006" y="1.67" class="p">█</text><text x="5.01" y="1.67" class="q">█</text><text x="6.012" y="1.67" class="v">▄</text><text x="7.014" y="1.67" class="r">█</text><text x="9.018" y="1.67" class="s">█</text><text x="10.02" y="1.67" class="t">▄</text><text x="11.022" y="1.67" class="u">▀</text></symbol><symbol id="8"><rect width="18" height="2.171" x="0" y="0" class="w"/><text x="0" y="1.67" class="m">example-basic ≫</text></symbol><symbol id="9"><text x="0" y="1.67" class="x">⠸</text><text x="2.004" y="1.67" class="x">&quot;sealing&quot;</text><text x="13.026" y="1.67" class="m">|</text><text x="15.03" y="1.67" class="x">=</text><text x="16.032" y="1.67" class="y">=</text><text x="17.034" y="1.67" class="z">=</text><text x="18.036" y="1.67" class="A">=</text><text x="19.038" y="1.67" class="B">=</text><text x="20.04" y="1.67" class="C">=</text><text x="21.042" y="1.67" class="D">=</text><text x="22.044" y="1.67" class="E">=</text><text x="23.046" y="1.67" class="F">=</text><text x="24.048" y="1.67" class="G">=</text><text x="25.05" y="1.67" class="H">=</text><text x="26.052" y="1.67" class="I">=</text><text x="27.054" y="1.67" class="J">=</text><text x="28.056" y="1.67" class="K">=</text><text x="29.058" y="1.67" class="L">=</text><text x="30.06" y="1.67" class="M">=</text><text x="31.062" y="1.67" class="N">=</text><text x="32.064" y="1.67" class="O">=</text><text x="33.066" y="1.67" class="P">=</text><text x="34.068" y="1.67" class="Q">=</text><text x="35.07" y="1.67" class="R">=</text><text x="36.072" y="1.67" class="S">=</text><text x="37.074" y="1.67" class="T">=</text><text x="38.076" y="1.67" class="U">=</text><text x="39.078" y="1.67" class="V">=</text><text x="40.08" y="1.67" class="W">=</text><text x="41.082" y="1.67" class="X">=</text><text x="42.084" y="1.67" class="Y">=</text><text x="43.086" y="1.67" class="Z">=</text><text x="44.088" y="1.67" class="aa">=</text><text x="45.09" y="1.67" class="ab">=</text><text x="46.092" y="1.67" class="ac">=</text><text x="47.094" y="1.67" class="ad">=</text><text x="48.096" y="1.67" class="ae">=</text><text x="49.098" y="1.67" class="af">=</text><text x="50.1" y="1.67" class="ag">=</text><text x="51.102" y="1.67" class="ah">=</text><text x="52.104" y="1.67" class="ai">=</text><text x="53.106" y="1.67" class="aj">=</text><text x="54.108" y="1.67" class="ak">=</text><text x="55.11" y="1.67" class="al">=</text><text x="56.112" y="1.67" class="am">=</text><text x="57.114" y="1.67" class="an">=</text><text x="58.116" y="1.67" class="ao">=</text><text x="59.118" y="1.67" class="ap">=</text><text x="60.12" y="1.67" class="aq">=</text><text x="61.122" y="1.67" class="ar">=</text><text x="62.124" y="1.67" class="as">=</text><text x="63.126" y="1.67" class="at">=</text><text x="64.128" y="1.67" class="au">=</text><text x="65.13" y="1.67" class="av">=</text><text x="66.132" y="1.67" class="aw">=</text><text x="67.134" y="1.67" class="ax">=</text><text x="68.136" y="1.67" class="m">-----</text><text x="74.148" y="1.67" class="m">|</text><text x="76.152" y="1.67" class="m">92%</text></symbol><symbol id="10"><rect width="38" height="2.171" x="0" y="0" class="w"/><text x="0" y="1.67" class="m">example-basic ≫ 2ff1fa52a085acc80f01</text></symbol><symbol id="11"><text x="0" y="1.67" class="g">┌─────────────────┬───────────┬───────────┬────────┐</text></symbol><symbol id="12"><text x="0" y="1.67" class="g">│</text><text x="2.004" y="1.67" class="ay">name</text><text x="18.036" y="1.67" class="g">│</text><text x="20.04" y="1.67" class="ay">immutable</text><text x="30.06" y="1.67" class="g">│</text><text x="32.064" y="1.67" class="ay">minimized</text><text x="42.084" y="1.67" class="g">│</text><text x="44.088" y="1.67" class="ay">size</text><text x="51.102" y="1.67" class="g">│</text></symbol><symbol id="13"><text x="0" y="1.67" class="g">├─────────────────┼───────────┼───────────┼────────┤</text></symbol><symbol id="14"><text x="0" y="1.67" class="g">│</text><text x="2.004" y="1.67" class="m">❇</text><text x="4.008" y="1.67" class="m">main.js</text><text x="18.036" y="1.67" class="g">│</text><text x="30.06" y="1.67" class="g">│</text><text x="32.064" y="1.67" class="m">✔</text><text x="42.084" y="1.67" class="g">│</text><text x="44.088" y="1.67" class="m">0.04</text><text x="49.098" y="1.67" class="m">k</text><text x="51.102" y="1.67" class="g">│</text></symbol><symbol id="15"><text x="0" y="1.67" class="g">│</text><text x="2.004" y="1.67" class="m">❇</text><text x="4.008" y="1.67" class="m">manifest.json</text><text x="18.036" y="1.67" class="g">│</text><text x="30.06" y="1.67" class="g">│</text><text x="42.084" y="1.67" class="g">│</text><text x="44.088" y="1.67" class="m">0.03</text><text x="49.098" y="1.67" class="m">k</text><text x="51.102" y="1.67" class="g">│</text></symbol><symbol id="16"><text x="0" y="1.67" class="g">└─────────────────┴───────────┴───────────┴────────┘</text></symbol><symbol id="17"><text x="1.002" y="1.67" class="az">Compiled</text><text x="10.02" y="1.67" class="az">in</text><text x="13.026" y="1.67" class="az">0.319s</text></symbol><symbol id="18"><text x="0" y="1.67" class="aA">✔</text><text x="2.004" y="1.67" class="aA">Complete</text><text x="13.026" y="1.67" class="m">|</text><text x="15.03" y="1.67" class="x">=</text><text x="16.032" y="1.67" class="y">=</text><text x="17.034" y="1.67" class="aB">=</text><text x="18.036" y="1.67" class="aC">=</text><text x="19.038" y="1.67" class="aD">=</text><text x="20.04" y="1.67" class="aE">=</text><text x="21.042" y="1.67" class="aF">=</text><text x="22.044" y="1.67" class="aG">=</text><text x="23.046" y="1.67" class="aH">=</text><text x="24.048" y="1.67" class="aI">=</text><text x="25.05" y="1.67" class="G">=</text><text x="26.052" y="1.67" class="H">=</text><text x="27.054" y="1.67" class="I">=</text><text x="28.056" y="1.67" class="J">=</text><text x="29.058" y="1.67" class="aJ">=</text><text x="30.06" y="1.67" class="aK">=</text><text x="31.062" y="1.67" class="aL">=</text><text x="32.064" y="1.67" class="aM">=</text><text x="33.066" y="1.67" class="aN">=</text><text x="34.068" y="1.67" class="aO">=</text><text x="35.07" y="1.67" class="aP">=</text><text x="36.072" y="1.67" class="Q">=</text><text x="37.074" y="1.67" class="R">=</text><text x="38.076" y="1.67" class="S">=</text><text x="39.078" y="1.67" class="T">=</text><text x="40.08" y="1.67" class="aQ">=</text><text x="41.082" y="1.67" class="aR">=</text><text x="42.084" y="1.67" class="aS">=</text><text x="43.086" y="1.67" class="aT">=</text><text x="44.088" y="1.67" class="aU">=</text><text x="45.09" y="1.67" class="aV">=</text><text x="46.092" y="1.67" class="aW">=</text><text x="47.094" y="1.67" class="aX">=</text><text x="48.096" y="1.67" class="ab">=</text><text x="49.098" y="1.67" class="ac">=</text><text x="50.1" y="1.67" class="ad">=</text><text x="51.102" y="1.67" class="ae">=</text><text x="52.104" y="1.67" class="aY">=</text><text x="53.106" y="1.67" class="aZ">=</text><text x="54.108" y="1.67" class="ba">=</text><text x="55.11" y="1.67" class="bb">=</text><text x="56.112" y="1.67" class="bc">=</text><text x="57.114" y="1.67" class="bd">=</text><text x="58.116" y="1.67" class="be">=</text><text x="59.118" y="1.67" class="al">=</text><text x="60.12" y="1.67" class="am">=</text><text x="61.122" y="1.67" class="an">=</text><text x="62.124" y="1.67" class="ao">=</text><text x="63.126" y="1.67" class="bf">=</text><text x="64.128" y="1.67" class="bg">=</text><text x="65.13" y="1.67" class="bh">=</text><text x="66.132" y="1.67" class="bi">=</text><text x="67.134" y="1.67" class="bj">=</text><text x="68.136" y="1.67" class="bk">=</text><text x="69.138" y="1.67" class="bl">=</text><text x="70.14" y="1.67" class="bm">=</text><text x="71.142" y="1.67" class="aw">=</text><text x="72.144" y="1.67" class="ax">=</text><text x="74.148" y="1.67" class="m">|</text><text x="76.152" y="1.67" class="m">100%</text></symbol><symbol id="19"><text x="0" y="1.67" class="f">bud/examples/basic</text><text x="19.038" y="1.67" class="g">on</text><text x="22.044" y="1.67" class="h"></text><text x="24.048" y="1.67" class="h">test-api</text><text x="33.066" y="1.67" class="i">[$!?]</text><text x="39.078" y="1.67" class="g">took</text><text x="44.088" y="1.67" class="bn">5s</text></symbol><symbol id="20"><text x="0" y="1.67" class="j">➜</text><text x="2.004" y="1.67" class="k">exit</text></symbol><symbol id="a"><rect width="82" height="23" x="0" y="0" class="bo"/></symbol><symbol id="b"><rect width="1.102" height="2.171" class="bp"/></symbol></defs><rect width="82" height="49.933" class="a"/><g class="br"><svg width="4756" x="0" y="0"><svg x="0"><use xlink:href="#a"/><use x="1.996" y="4.317" xlink:href="#b"/><use y="2.171" xlink:href="#1"/><use y="4.342" xlink:href="#2"/></svg><svg x="82"><use xlink:href="#a"/><use x="1.996" y="4.317" xlink:href="#b"/><use y="2.171" xlink:href="#1"/><use y="4.342" xlink:href="#2"/></svg><svg x="164"><use xlink:href="#a"/><use x="1.996" y="4.317" xlink:href="#b"/><use y="2.171" xlink:href="#1"/><use y="4.342" xlink:href="#2"/></svg><svg x="246"><use xlink:href="#a"/><use x="2.996" y="4.317" xlink:href="#b"/><use y="2.171" xlink:href="#1"/><text x="0" y="6.012" class="j">➜</text><text x="2.004" y="6.012" class="k">y</text><text x="3.006" y="6.012" class="l">arn</text><text x="7.014" y="6.012" class="l">bud</text><text x="11.022" y="6.012" class="l">build</text></svg><svg x="328"><use xlink:href="#a"/><use x="3.996" y="4.317" xlink:href="#b"/><use y="2.171" xlink:href="#1"/><text x="0" y="6.012" class="j">➜</text><text x="2.004" y="6.012" class="k">ya</text><text x="4.008" y="6.012" class="l">rn</text><text x="7.014" y="6.012" class="l">bud</text><text x="11.022" y="6.012" class="l">build</text></svg><svg x="410"><use xlink:href="#a"/><use x="4.996" y="4.317" xlink:href="#b"/><use y="2.171" xlink:href="#1"/><text x="0" y="6.012" class="j">➜</text><text x="2.004" y="6.012" class="i">yar</text><text x="5.01" y="6.012" class="l">n</text><text x="7.014" y="6.012" class="l">bud</text><text x="11.022" y="6.012" class="l">build</text></svg><svg x="492"><use xlink:href="#a"/><use x="5.996" y="4.317" xlink:href="#b"/><use y="2.171" xlink:href="#1"/><use y="4.342" xlink:href="#3"/></svg><svg x="574"><use xlink:href="#a"/><use x="6.996" y="4.317" xlink:href="#b"/><use y="2.171" xlink:href="#1"/><use y="4.342" xlink:href="#3"/></svg><svg x="656"><use xlink:href="#a"/><use x="7.996" y="4.317" xlink:href="#b"/><use y="2.171" xlink:href="#1"/><text x="0" y="6.012" class="j">➜</text><text x="2.004" y="6.012" class="k">yarn</text><text x="7.014" y="6.012" class="m">b</text><text x="8.016" y="6.012" class="l">ud</text><text x="11.022" y="6.012" class="l">build</text></svg><svg x="738"><use xlink:href="#a"/><use x="8.996" y="4.317" xlink:href="#b"/><use y="2.171" xlink:href="#1"/><text x="0" y="6.012" class="j">➜</text><text x="2.004" y="6.012" class="k">yarn</text><text x="7.014" y="6.012" class="m">bu</text><text x="9.018" y="6.012" class="l">d</text><text x="11.022" y="6.012" class="l">build</text></svg><svg x="820"><use xlink:href="#a"/><use x="9.996" y="4.317" xlink:href="#b"/><use y="2.171" xlink:href="#1"/><use y="4.342" xlink:href="#4"/></svg><svg x="902"><use xlink:href="#a"/><use x="10.996" y="4.317" xlink:href="#b"/><use y="2.171" xlink:href="#1"/><use y="4.342" xlink:href="#4"/></svg><svg x="984"><use xlink:href="#a"/><use x="11.996" y="4.317" xlink:href="#b"/><use y="2.171" xlink:href="#1"/><text x="0" y="6.012" class="j">➜</text><text x="2.004" y="6.012" class="k">yarn</text><text x="7.014" y="6.012" class="m">bud</text><text x="11.022" y="6.012" class="m">b</text><text x="12.024" y="6.012" class="l">uild</text></svg><svg x="1066"><use xlink:href="#a"/><use x="12.996" y="4.317" xlink:href="#b"/><use y="2.171" xlink:href="#1"/><text x="0" y="6.012" class="j">➜</text><text x="2.004" y="6.012" class="k">yarn</text><text x="7.014" y="6.012" class="m">bud</text><text x="11.022" y="6.012" class="m">bu</text><text x="13.026" y="6.012" class="l">ild</text></svg><svg x="1148"><use xlink:href="#a"/><use x="13.996" y="4.317" xlink:href="#b"/><use y="2.171" xlink:href="#1"/><text x="0" y="6.012" class="j">➜</text><text x="2.004" y="6.012" class="k">yarn</text><text x="7.014" y="6.012" class="m">bud</text><text x="11.022" y="6.012" class="m">bui</text><text x="14.028" y="6.012" class="l">ld</text></svg><svg x="1230"><use xlink:href="#a"/><use x="14.996" y="4.317" xlink:href="#b"/><use y="2.171" xlink:href="#1"/><text x="0" y="6.012" class="j">➜</text><text x="2.004" y="6.012" class="k">yarn</text><text x="7.014" y="6.012" class="m">bud</text><text x="11.022" y="6.012" class="m">buil</text><text x="15.03" y="6.012" class="l">d</text></svg><svg x="1312"><use xlink:href="#a"/><use x="15.996" y="4.317" xlink:href="#b"/><use y="2.171" xlink:href="#1"/><use y="4.342" xlink:href="#5"/></svg><svg x="1394"><use xlink:href="#a"/><use x="15.996" y="4.317" xlink:href="#b"/><use y="2.171" xlink:href="#1"/><use y="4.342" xlink:href="#5"/></svg><svg x="1476"><use xlink:href="#a"/><use x="-.004" y="6.488" xlink:href="#b"/><use y="2.171" xlink:href="#1"/><use y="4.342" xlink:href="#5"/></svg><svg x="1558"><use xlink:href="#a"/><use x="-.004" y="6.488" xlink:href="#b"/><use y="2.171" xlink:href="#1"/><use y="4.342" xlink:href="#5"/></svg><svg x="1640"><use xlink:href="#a"/><use x="-.004" y="19.514" xlink:href="#b"/><use y="2.171" xlink:href="#1"/><use y="4.342" xlink:href="#5"/><use y="10.855" xlink:href="#6"/><use y="13.026" xlink:href="#7"/></svg><svg x="1722"><use xlink:href="#a"/><use y="2.171" xlink:href="#1"/><use y="4.342" xlink:href="#5"/><use y="10.855" xlink:href="#6"/><use y="13.026" xlink:href="#7"/></svg><svg x="1804"><use xlink:href="#a"/><use y="2.171" xlink:href="#1"/><use y="4.342" xlink:href="#5"/><use y="10.855" xlink:href="#6"/><use y="13.026" xlink:href="#7"/><use y="19.539" xlink:href="#8"/></svg><svg x="1886"><use xlink:href="#a"/><use y="2.171" xlink:href="#1"/><use y="4.342" xlink:href="#5"/><use y="10.855" xlink:href="#6"/><use y="13.026" xlink:href="#7"/><use y="19.539" xlink:href="#8"/></svg><svg x="1968"><use xlink:href="#a"/><use y="2.171" xlink:href="#1"/><use y="4.342" xlink:href="#5"/><use y="10.855" xlink:href="#6"/><use y="13.026" xlink:href="#7"/><use y="19.539" xlink:href="#8"/></svg><svg x="2050"><use xlink:href="#a"/><use y="2.171" xlink:href="#1"/><use y="4.342" xlink:href="#5"/><use y="10.855" xlink:href="#6"/><use y="13.026" xlink:href="#7"/><use y="19.539" xlink:href="#8"/><text x="0" y="25.551" class="x">⠋</text><text x="2.004" y="25.551" class="x">&quot;setup&quot;</text><text x="14.028" y="25.551" class="m">3%</text></svg><svg x="2132"><use xlink:href="#a"/><use y="2.171" xlink:href="#1"/><use y="4.342" xlink:href="#5"/><use y="10.855" xlink:href="#6"/><use y="13.026" xlink:href="#7"/><use y="19.539" xlink:href="#8"/><text x="0" y="25.551" class="x">⠋</text><text x="2.004" y="25.551" class="x">&quot;setup&quot;</text><text x="13.026" y="25.551" class="m">|</text><text x="15.03" y="25.551" class="x">=</text><text x="16.032" y="25.551" class="m">---------------------------------------------------------</text><text x="74.148" y="25.551" class="m">|</text><text x="76.152" y="25.551" class="m">3%</text></svg><svg x="2214"><use xlink:href="#a"/><use y="2.171" xlink:href="#1"/><use y="4.342" xlink:href="#5"/><use y="10.855" xlink:href="#6"/><use y="13.026" xlink:href="#7"/><use y="19.539" xlink:href="#8"/><text x="0" y="25.551" class="x">⠙</text><text x="2.004" y="25.551" class="x">&quot;setup&quot;</text><text x="13.026" y="25.551" class="m">|</text><text x="15.03" y="25.551" class="x">=</text><text x="16.032" y="25.551" class="m">---------------------------------------------------------</text><text x="74.148" y="25.551" class="m">|</text><text x="76.152" y="25.551" class="m">3%</text></svg><svg x="2296"><use xlink:href="#a"/><use y="2.171" xlink:href="#1"/><use y="4.342" xlink:href="#5"/><use y="10.855" xlink:href="#6"/><use y="13.026" xlink:href="#7"/><use y="19.539" xlink:href="#8"/><text x="0" y="25.551" class="x">⠙</text><text x="2.004" y="25.551" class="x">&quot;building&quot;</text><text x="13.026" y="25.551" class="m">|</text><text x="15.03" y="25.551" class="x">=</text><text x="16.032" y="25.551" class="K">=</text><text x="17.034" y="25.551" class="X">=</text><text x="18.036" y="25.551" class="ak">=</text><text x="19.038" y="25.551" class="ax">=</text><text x="20.04" y="25.551" class="m">-----------------------------------------------------</text><text x="74.148" y="25.551" class="m">|</text><text x="76.152" y="25.551" class="m">10%</text></svg><svg x="2378"><use xlink:href="#a"/><use y="2.171" xlink:href="#1"/><use y="4.342" xlink:href="#5"/><use y="10.855" xlink:href="#6"/><use y="13.026" xlink:href="#7"/><use y="19.539" xlink:href="#8"/><text x="0" y="25.551" class="x">⠙</text><text x="2.004" y="25.551" class="x">&quot;sealing&quot;</text><text x="13.026" y="25.551" class="m">|</text><text x="15.03" y="25.551" class="x">=</text><text x="16.032" y="25.551" class="K">=</text><text x="17.034" y="25.551" class="X">=</text><text x="18.036" y="25.551" class="ak">=</text><text x="19.038" y="25.551" class="ax">=</text><text x="20.04" y="25.551" class="m">-----------------------------------------------------</text><text x="74.148" y="25.551" class="m">|</text><text x="76.152" y="25.551" class="m">92%</text></svg><svg x="2460"><use xlink:href="#a"/><use y="2.171" xlink:href="#1"/><use y="4.342" xlink:href="#5"/><use y="10.855" xlink:href="#6"/><use y="13.026" xlink:href="#7"/><use y="19.539" xlink:href="#8"/><text x="0" y="25.551" class="x">⠹</text><text x="2.004" y="25.551" class="x">&quot;sealing&quot;</text><text x="13.026" y="25.551" class="m">|</text><text x="15.03" y="25.551" class="x">=</text><text x="16.032" y="25.551" class="y">=</text><text x="17.034" y="25.551" class="z">=</text><text x="18.036" y="25.551" class="A">=</text><text x="19.038" y="25.551" class="B">=</text><text x="20.04" y="25.551" class="C">=</text><text x="21.042" y="25.551" class="D">=</text><text x="22.044" y="25.551" class="E">=</text><text x="23.046" y="25.551" class="F">=</text><text x="24.048" y="25.551" class="G">=</text><text x="25.05" y="25.551" class="H">=</text><text x="26.052" y="25.551" class="I">=</text><text x="27.054" y="25.551" class="J">=</text><text x="28.056" y="25.551" class="K">=</text><text x="29.058" y="25.551" class="L">=</text><text x="30.06" y="25.551" class="M">=</text><text x="31.062" y="25.551" class="N">=</text><text x="32.064" y="25.551" class="O">=</text><text x="33.066" y="25.551" class="P">=</text><text x="34.068" y="25.551" class="Q">=</text><text x="35.07" y="25.551" class="R">=</text><text x="36.072" y="25.551" class="S">=</text><text x="37.074" y="25.551" class="T">=</text><text x="38.076" y="25.551" class="U">=</text><text x="39.078" y="25.551" class="V">=</text><text x="40.08" y="25.551" class="W">=</text><text x="41.082" y="25.551" class="X">=</text><text x="42.084" y="25.551" class="Y">=</text><text x="43.086" y="25.551" class="Z">=</text><text x="44.088" y="25.551" class="aa">=</text><text x="45.09" y="25.551" class="ab">=</text><text x="46.092" y="25.551" class="ac">=</text><text x="47.094" y="25.551" class="ad">=</text><text x="48.096" y="25.551" class="ae">=</text><text x="49.098" y="25.551" class="af">=</text><text x="50.1" y="25.551" class="ag">=</text><text x="51.102" y="25.551" class="ah">=</text><text x="52.104" y="25.551" class="ai">=</text><text x="53.106" y="25.551" class="aj">=</text></svg><svg x="2542"><use xlink:href="#a"/><use y="2.171" xlink:href="#1"/><use y="4.342" xlink:href="#5"/><use y="10.855" xlink:href="#6"/><use y="13.026" xlink:href="#7"/><use y="19.539" xlink:href="#8"/><text x="0" y="25.551" class="x">⠹</text><text x="2.004" y="25.551" class="x">&quot;sealing&quot;</text><text x="13.026" y="25.551" class="m">|</text><text x="15.03" y="25.551" class="x">=</text><text x="16.032" y="25.551" class="y">=</text><text x="17.034" y="25.551" class="z">=</text><text x="18.036" y="25.551" class="A">=</text><text x="19.038" y="25.551" class="B">=</text><text x="20.04" y="25.551" class="C">=</text><text x="21.042" y="25.551" class="D">=</text><text x="22.044" y="25.551" class="E">=</text><text x="23.046" y="25.551" class="F">=</text><text x="24.048" y="25.551" class="G">=</text><text x="25.05" y="25.551" class="H">=</text><text x="26.052" y="25.551" class="I">=</text><text x="27.054" y="25.551" class="J">=</text><text x="28.056" y="25.551" class="K">=</text><text x="29.058" y="25.551" class="L">=</text><text x="30.06" y="25.551" class="M">=</text><text x="31.062" y="25.551" class="N">=</text><text x="32.064" y="25.551" class="O">=</text><text x="33.066" y="25.551" class="P">=</text><text x="34.068" y="25.551" class="Q">=</text><text x="35.07" y="25.551" class="R">=</text><text x="36.072" y="25.551" class="S">=</text><text x="37.074" y="25.551" class="T">=</text><text x="38.076" y="25.551" class="U">=</text><text x="39.078" y="25.551" class="V">=</text><text x="40.08" y="25.551" class="W">=</text><text x="41.082" y="25.551" class="X">=</text><text x="42.084" y="25.551" class="Y">=</text><text x="43.086" y="25.551" class="Z">=</text><text x="44.088" y="25.551" class="aa">=</text><text x="45.09" y="25.551" class="ab">=</text><text x="46.092" y="25.551" class="ac">=</text><text x="47.094" y="25.551" class="ad">=</text><text x="48.096" y="25.551" class="ae">=</text><text x="49.098" y="25.551" class="af">=</text><text x="50.1" y="25.551" class="ag">=</text><text x="51.102" y="25.551" class="ah">=</text><text x="52.104" y="25.551" class="ai">=</text><text x="53.106" y="25.551" class="aj">=</text><text x="54.108" y="25.551" class="ak">=</text><text x="55.11" y="25.551" class="al">=</text><text x="56.112" y="25.551" class="am">=</text><text x="57.114" y="25.551" class="an">=</text><text x="58.116" y="25.551" class="ao">=</text><text x="59.118" y="25.551" class="ap">=</text><text x="60.12" y="25.551" class="aq">=</text><text x="61.122" y="25.551" class="ar">=</text><text x="62.124" y="25.551" class="as">=</text><text x="63.126" y="25.551" class="at">=</text><text x="64.128" y="25.551" class="au">=</text><text x="65.13" y="25.551" class="av">=</text><text x="66.132" y="25.551" class="aw">=</text><text x="67.134" y="25.551" class="ax">=</text><text x="68.136" y="25.551" class="m">-----</text><text x="74.148" y="25.551" class="m">|</text><text x="76.152" y="25.551" class="m">92%</text></svg><svg x="2624"><use xlink:href="#a"/><use y="2.171" xlink:href="#1"/><use y="4.342" xlink:href="#5"/><use y="10.855" xlink:href="#6"/><use y="13.026" xlink:href="#7"/><use y="19.539" xlink:href="#8"/><text x="0" y="25.551" class="x">⠸</text><text x="2.004" y="25.551" class="x">&quot;sealing&quot;</text><text x="13.026" y="25.551" class="m">|</text><text x="15.03" y="25.551" class="x">=</text><text x="16.032" y="25.551" class="y">=</text><text x="17.034" y="25.551" class="z">=</text><text x="18.036" y="25.551" class="A">=</text><text x="19.038" y="25.551" class="B">=</text><text x="20.04" y="25.551" class="C">=</text><text x="21.042" y="25.551" class="D">=</text><text x="22.044" y="25.551" class="E">=</text><text x="23.046" y="25.551" class="F">=</text><text x="24.048" y="25.551" class="G">=</text><text x="25.05" y="25.551" class="H">=</text><text x="26.052" y="25.551" class="I">=</text><text x="27.054" y="25.551" class="J">=</text><text x="28.056" y="25.551" class="K">=</text><text x="29.058" y="25.551" class="L">=</text><text x="30.06" y="25.551" class="M">=</text><text x="31.062" y="25.551" class="N">=</text><text x="32.064" y="25.551" class="O">=</text><text x="33.066" y="25.551" class="P">=</text><text x="34.068" y="25.551" class="Q">=</text><text x="35.07" y="25.551" class="R">=</text><text x="36.072" y="25.551" class="S">=</text><text x="37.074" y="25.551" class="T">=</text><text x="38.076" y="25.551" class="U">=</text><text x="39.078" y="25.551" class="V">=</text><text x="40.08" y="25.551" class="W">=</text><text x="41.082" y="25.551" class="X">=</text><text x="42.084" y="25.551" class="Y">=</text><text x="43.086" y="25.551" class="Z">=</text><text x="44.088" y="25.551" class="aa">=</text><text x="45.09" y="25.551" class="ab">=</text><text x="46.092" y="25.551" class="ac">=</text><text x="47.094" y="25.551" class="ad">=</text><text x="48.096" y="25.551" class="ae">=</text><text x="49.098" y="25.551" class="af">=</text><text x="50.1" y="25.551" class="ag">=</text><text x="51.102" y="25.551" class="ah">=</text><text x="52.104" y="25.551" class="ai">=</text><text x="53.106" y="25.551" class="aj">=</text></svg><svg x="2706"><use xlink:href="#a"/><use y="2.171" xlink:href="#1"/><use y="4.342" xlink:href="#5"/><use y="10.855" xlink:href="#6"/><use y="13.026" xlink:href="#7"/><use y="19.539" xlink:href="#8"/><use y="23.881" xlink:href="#9"/></svg><svg x="2788"><use xlink:href="#a"/><use y="2.171" xlink:href="#1"/><use y="4.342" xlink:href="#5"/><use y="10.855" xlink:href="#6"/><use y="13.026" xlink:href="#7"/><use y="19.539" xlink:href="#10"/><use y="21.71" xlink:href="#11"/><use y="23.881" xlink:href="#12"/><use y="26.052" xlink:href="#13"/><use y="28.223" xlink:href="#14"/><text x="0" y="32.064" class="g">├─────────────────┼───────────┼───</text></svg><svg x="2870"><use xlink:href="#a"/><use y="2.171" xlink:href="#1"/><use y="4.342" xlink:href="#5"/><use y="10.855" xlink:href="#6"/><use y="13.026" xlink:href="#7"/><use y="19.539" xlink:href="#10"/><use y="21.71" xlink:href="#11"/><use y="23.881" xlink:href="#12"/><use y="26.052" xlink:href="#13"/><use y="28.223" xlink:href="#14"/><use y="30.394" xlink:href="#13"/><use y="32.565" xlink:href="#15"/><use y="34.736" xlink:href="#16"/><use y="36.907" xlink:href="#17"/><text x="0" y="42.919" class="x">⠸</text><text x="2.004" y="42.919" class="x">&quot;sealing&quot;</text><text x="13.026" y="42.919" class="m">|</text><text x="15.03" y="42.919" class="x">=</text><text x="16.032" y="42.919" class="y">=</text><text x="17.034" y="42.919" class="z">=</text><text x="18.036" y="42.919" class="A">=</text><text x="19.038" y="42.919" class="B">=</text><text x="20.04" y="42.919" class="C">=</text><text x="21.042" y="42.919" class="D">=</text><text x="22.044" y="42.919" class="E">=</text><text x="23.046" y="42.919" class="F">=</text><text x="24.048" y="42.919" class="G">=</text><text x="25.05" y="42.919" class="H">=</text><text x="26.052" y="42.919" class="I">=</text><text x="27.054" y="42.919" class="J">=</text><text x="28.056" y="42.919" class="K">=</text><text x="29.058" y="42.919" class="L">=</text><text x="30.06" y="42.919" class="M">=</text><text x="31.062" y="42.919" class="N">=</text><text x="32.064" y="42.919" class="O">=</text><text x="33.066" y="42.919" class="P">=</text><text x="34.068" y="42.919" class="Q">=</text><text x="35.07" y="42.919" class="R">=</text><text x="36.072" y="42.919" class="S">=</text></svg><svg x="2952"><use xlink:href="#a"/><use y="2.171" xlink:href="#1"/><use y="4.342" xlink:href="#5"/><use y="10.855" xlink:href="#6"/><use y="13.026" xlink:href="#7"/><use y="19.539" xlink:href="#10"/><use y="21.71" xlink:href="#11"/><use y="23.881" xlink:href="#12"/><use y="26.052" xlink:href="#13"/><use y="28.223" xlink:href="#14"/><use y="30.394" xlink:href="#13"/><use y="32.565" xlink:href="#15"/><use y="34.736" xlink:href="#16"/><use y="36.907" xlink:href="#17"/><use y="41.249" xlink:href="#9"/></svg><svg x="3034"><use xlink:href="#a"/><use y="2.171" xlink:href="#1"/><use y="4.342" xlink:href="#5"/><use y="10.855" xlink:href="#6"/><use y="13.026" xlink:href="#7"/><use y="19.539" xlink:href="#10"/><use y="21.71" xlink:href="#11"/><use y="23.881" xlink:href="#12"/><use y="26.052" xlink:href="#13"/><use y="28.223" xlink:href="#14"/><text x="0" y="32.064" class="g">├─────────────────┼</text></svg><svg x="3116"><use xlink:href="#a"/><use y="2.171" xlink:href="#1"/><use y="4.342" xlink:href="#5"/><use y="10.855" xlink:href="#6"/><use y="13.026" xlink:href="#7"/><use y="19.539" xlink:href="#10"/><use y="21.71" xlink:href="#11"/><use y="23.881" xlink:href="#12"/><use y="26.052" xlink:href="#13"/><use y="28.223" xlink:href="#14"/><use y="30.394" xlink:href="#13"/><use y="32.565" xlink:href="#15"/><use y="34.736" xlink:href="#16"/><use y="36.907" xlink:href="#17"/><text x="0" y="42.919" class="aA">✔</text><text x="2.004" y="42.919" class="aA">Complete</text><text x="13.026" y="42.919" class="m">|</text><text x="15.03" y="42.919" class="x">=</text><text x="16.032" y="42.919" class="y">=</text><text x="17.034" y="42.919" class="aB">=</text><text x="18.036" y="42.919" class="aC">=</text><text x="19.038" y="42.919" class="aD">=</text><text x="20.04" y="42.919" class="aE">=</text><text x="21.042" y="42.919" class="aF">=</text><text x="22.044" y="42.919" class="aG">=</text><text x="23.046" y="42.919" class="aH">=</text><text x="24.048" y="42.919" class="aI">=</text><text x="25.05" y="42.919" class="G">=</text><text x="26.052" y="42.919" class="H">=</text><text x="27.054" y="42.919" class="I">=</text><text x="28.056" y="42.919" class="J">=</text><text x="29.058" y="42.919" class="aJ">=</text><text x="30.06" y="42.919" class="aK">=</text><text x="31.062" y="42.919" class="aL">=</text><text x="32.064" y="42.919" class="aM">=</text><text x="33.066" y="42.919" class="aN">=</text></svg><svg x="3198"><use xlink:href="#a"/><use y="2.171" xlink:href="#1"/><use y="4.342" xlink:href="#5"/><use y="10.855" xlink:href="#6"/><use y="13.026" xlink:href="#7"/><use y="19.539" xlink:href="#10"/><use y="21.71" xlink:href="#11"/><use y="23.881" xlink:href="#12"/><use y="26.052" xlink:href="#13"/><use y="28.223" xlink:href="#14"/><use y="30.394" xlink:href="#13"/><use y="32.565" xlink:href="#15"/><use y="34.736" xlink:href="#16"/><use y="36.907" xlink:href="#17"/><use y="41.249" xlink:href="#18"/></svg><svg x="3280"><use xlink:href="#a"/><use x="-.004" y="43.395" xlink:href="#b"/><use y="2.171" xlink:href="#1"/><use y="4.342" xlink:href="#5"/><use y="10.855" xlink:href="#6"/><use y="13.026" xlink:href="#7"/><use y="19.539" xlink:href="#10"/><use y="21.71" xlink:href="#11"/><use y="23.881" xlink:href="#12"/><use y="26.052" xlink:href="#13"/><use y="28.223" xlink:href="#14"/><use y="30.394" xlink:href="#13"/><use y="32.565" xlink:href="#15"/><use y="34.736" xlink:href="#16"/><use y="36.907" xlink:href="#17"/><use y="41.249" xlink:href="#18"/></svg><svg x="3362"><use xlink:href="#a"/><use x="-.004" y="43.395" xlink:href="#b"/><use y="2.171" xlink:href="#1"/><use y="4.342" xlink:href="#5"/><use y="10.855" xlink:href="#6"/><use y="13.026" xlink:href="#7"/><use y="19.539" xlink:href="#10"/><use y="21.71" xlink:href="#11"/><use y="23.881" xlink:href="#12"/><use y="26.052" xlink:href="#13"/><use y="28.223" xlink:href="#14"/><use y="30.394" xlink:href="#13"/><use y="32.565" xlink:href="#15"/><use y="34.736" xlink:href="#16"/><use y="36.907" xlink:href="#17"/><use y="41.249" xlink:href="#18"/></svg><svg x="3444"><use xlink:href="#a"/><use x="-.004" y="43.395" xlink:href="#b"/><use y="2.171" xlink:href="#1"/><use y="4.342" xlink:href="#5"/><use y="10.855" xlink:href="#6"/><use y="13.026" xlink:href="#7"/><use y="19.539" xlink:href="#10"/><use y="21.71" xlink:href="#11"/><use y="23.881" xlink:href="#12"/><use y="26.052" xlink:href="#13"/><use y="28.223" xlink:href="#14"/><use y="30.394" xlink:href="#13"/><use y="32.565" xlink:href="#15"/><use y="34.736" xlink:href="#16"/><use y="36.907" xlink:href="#17"/><use y="41.249" xlink:href="#18"/></svg><svg x="3526"><use xlink:href="#a"/><use x="-.004" y="43.395" xlink:href="#b"/><use y="2.171" xlink:href="#1"/><use y="4.342" xlink:href="#5"/><use y="10.855" xlink:href="#6"/><use y="13.026" xlink:href="#7"/><use y="19.539" xlink:href="#10"/><use y="21.71" xlink:href="#11"/><use y="23.881" xlink:href="#12"/><use y="26.052" xlink:href="#13"/><use y="28.223" xlink:href="#14"/><use y="30.394" xlink:href="#13"/><use y="32.565" xlink:href="#15"/><use y="34.736" xlink:href="#16"/><use y="36.907" xlink:href="#17"/><use y="41.249" xlink:href="#18"/></svg><svg x="3608"><use xlink:href="#a"/><use x="-.004" y="43.395" xlink:href="#b"/><use y="2.171" xlink:href="#1"/><use y="4.342" xlink:href="#5"/><use y="10.855" xlink:href="#6"/><use y="13.026" xlink:href="#7"/><use y="19.539" xlink:href="#10"/><use y="21.71" xlink:href="#11"/><use y="23.881" xlink:href="#12"/><use y="26.052" xlink:href="#13"/><use y="28.223" xlink:href="#14"/><use y="30.394" xlink:href="#13"/><use y="32.565" xlink:href="#15"/><use y="34.736" xlink:href="#16"/><use y="36.907" xlink:href="#17"/><use y="41.249" xlink:href="#18"/></svg><svg x="3690"><use xlink:href="#a"/><use x="-.004" y="43.395" xlink:href="#b"/><use y="2.171" xlink:href="#1"/><use y="4.342" xlink:href="#5"/><use y="10.855" xlink:href="#6"/><use y="13.026" xlink:href="#7"/><use y="19.539" xlink:href="#10"/><use y="21.71" xlink:href="#11"/><use y="23.881" xlink:href="#12"/><use y="26.052" xlink:href="#13"/><use y="28.223" xlink:href="#14"/><use y="30.394" xlink:href="#13"/><use y="32.565" xlink:href="#15"/><use y="34.736" xlink:href="#16"/><use y="36.907" xlink:href="#17"/><use y="41.249" xlink:href="#18"/></svg><svg x="3772"><use xlink:href="#a"/><use x="-.004" y="43.395" xlink:href="#b"/><use y="2.171" xlink:href="#1"/><use y="4.342" xlink:href="#5"/><use y="10.855" xlink:href="#6"/><use y="13.026" xlink:href="#7"/><use y="19.539" xlink:href="#10"/><use y="21.71" xlink:href="#11"/><use y="23.881" xlink:href="#12"/><use y="26.052" xlink:href="#13"/><use y="28.223" xlink:href="#14"/><use y="30.394" xlink:href="#13"/><use y="32.565" xlink:href="#15"/><use y="34.736" xlink:href="#16"/><use y="36.907" xlink:href="#17"/><use y="41.249" xlink:href="#18"/></svg><svg x="3854"><use xlink:href="#a"/><use x="-.004" y="43.395" xlink:href="#b"/><use y="2.171" xlink:href="#1"/><use y="4.342" xlink:href="#5"/><use y="10.855" xlink:href="#6"/><use y="13.026" xlink:href="#7"/><use y="19.539" xlink:href="#10"/><use y="21.71" xlink:href="#11"/><use y="23.881" xlink:href="#12"/><use y="26.052" xlink:href="#13"/><use y="28.223" xlink:href="#14"/><use y="30.394" xlink:href="#13"/><use y="32.565" xlink:href="#15"/><use y="34.736" xlink:href="#16"/><use y="36.907" xlink:href="#17"/><use y="41.249" xlink:href="#18"/></svg><svg x="3936"><use xlink:href="#a"/><use x="1.996" y="47.737" xlink:href="#b"/><use y="2.171" xlink:href="#1"/><use y="4.342" xlink:href="#5"/><use y="10.855" xlink:href="#6"/><use y="13.026" xlink:href="#7"/><use y="19.539" xlink:href="#10"/><use y="21.71" xlink:href="#11"/><use y="23.881" xlink:href="#12"/><use y="26.052" xlink:href="#13"/><use y="28.223" xlink:href="#14"/><use y="30.394" xlink:href="#13"/><use y="32.565" xlink:href="#15"/><use y="34.736" xlink:href="#16"/><use y="36.907" xlink:href="#17"/><use y="41.249" xlink:href="#18"/><use y="45.591" xlink:href="#19"/><use y="47.762" xlink:href="#2"/></svg><svg x="4018"><use xlink:href="#a"/><use x="1.996" y="47.737" xlink:href="#b"/><use y="2.171" xlink:href="#1"/><use y="4.342" xlink:href="#5"/><use y="10.855" xlink:href="#6"/><use y="13.026" xlink:href="#7"/><use y="19.539" xlink:href="#10"/><use y="21.71" xlink:href="#11"/><use y="23.881" xlink:href="#12"/><use y="26.052" xlink:href="#13"/><use y="28.223" xlink:href="#14"/><use y="30.394" xlink:href="#13"/><use y="32.565" xlink:href="#15"/><use y="34.736" xlink:href="#16"/><use y="36.907" xlink:href="#17"/><use y="41.249" xlink:href="#18"/><use y="45.591" xlink:href="#19"/><use y="47.762" xlink:href="#2"/></svg><svg x="4100"><use xlink:href="#a"/><use x="1.996" y="47.737" xlink:href="#b"/><use y="2.171" xlink:href="#1"/><use y="4.342" xlink:href="#5"/><use y="10.855" xlink:href="#6"/><use y="13.026" xlink:href="#7"/><use y="19.539" xlink:href="#10"/><use y="21.71" xlink:href="#11"/><use y="23.881" xlink:href="#12"/><use y="26.052" xlink:href="#13"/><use y="28.223" xlink:href="#14"/><use y="30.394" xlink:href="#13"/><use y="32.565" xlink:href="#15"/><use y="34.736" xlink:href="#16"/><use y="36.907" xlink:href="#17"/><use y="41.249" xlink:href="#18"/><use y="45.591" xlink:href="#19"/><use y="47.762" xlink:href="#2"/></svg><svg x="4182"><use xlink:href="#a"/><use x="2.996" y="47.737" xlink:href="#b"/><use y="2.171" xlink:href="#1"/><use y="4.342" xlink:href="#5"/><use y="10.855" xlink:href="#6"/><use y="13.026" xlink:href="#7"/><use y="19.539" xlink:href="#10"/><use y="21.71" xlink:href="#11"/><use y="23.881" xlink:href="#12"/><use y="26.052" xlink:href="#13"/><use y="28.223" xlink:href="#14"/><use y="30.394" xlink:href="#13"/><use y="32.565" xlink:href="#15"/><use y="34.736" xlink:href="#16"/><use y="36.907" xlink:href="#17"/><use y="41.249" xlink:href="#18"/><use y="45.591" xlink:href="#19"/><text x="0" y="49.432" class="j">➜</text><text x="2.004" y="49.432" class="i">e</text><text x="3.006" y="49.432" class="l">xit</text></svg><svg x="4264"><use xlink:href="#a"/><use x="3.996" y="47.737" xlink:href="#b"/><use y="2.171" xlink:href="#1"/><use y="4.342" xlink:href="#5"/><use y="10.855" xlink:href="#6"/><use y="13.026" xlink:href="#7"/><use y="19.539" xlink:href="#10"/><use y="21.71" xlink:href="#11"/><use y="23.881" xlink:href="#12"/><use y="26.052" xlink:href="#13"/><use y="28.223" xlink:href="#14"/><use y="30.394" xlink:href="#13"/><use y="32.565" xlink:href="#15"/><use y="34.736" xlink:href="#16"/><use y="36.907" xlink:href="#17"/><use y="41.249" xlink:href="#18"/><use y="45.591" xlink:href="#19"/><text x="0" y="49.432" class="j">➜</text><text x="2.004" y="49.432" class="k">ex</text><text x="4.008" y="49.432" class="l">it</text></svg><svg x="4346"><use xlink:href="#a"/><use x="4.996" y="47.737" xlink:href="#b"/><use y="2.171" xlink:href="#1"/><use y="4.342" xlink:href="#5"/><use y="10.855" xlink:href="#6"/><use y="13.026" xlink:href="#7"/><use y="19.539" xlink:href="#10"/><use y="21.71" xlink:href="#11"/><use y="23.881" xlink:href="#12"/><use y="26.052" xlink:href="#13"/><use y="28.223" xlink:href="#14"/><use y="30.394" xlink:href="#13"/><use y="32.565" xlink:href="#15"/><use y="34.736" xlink:href="#16"/><use y="36.907" xlink:href="#17"/><use y="41.249" xlink:href="#18"/><use y="45.591" xlink:href="#19"/><text x="0" y="49.432" class="j">➜</text><text x="2.004" y="49.432" class="i">exi</text><text x="5.01" y="49.432" class="l">t</text></svg><svg x="4428"><use xlink:href="#a"/><use x="5.996" y="47.737" xlink:href="#b"/><use y="2.171" xlink:href="#1"/><use y="4.342" xlink:href="#5"/><use y="10.855" xlink:href="#6"/><use y="13.026" xlink:href="#7"/><use y="19.539" xlink:href="#10"/><use y="21.71" xlink:href="#11"/><use y="23.881" xlink:href="#12"/><use y="26.052" xlink:href="#13"/><use y="28.223" xlink:href="#14"/><use y="30.394" xlink:href="#13"/><use y="32.565" xlink:href="#15"/><use y="34.736" xlink:href="#16"/><use y="36.907" xlink:href="#17"/><use y="41.249" xlink:href="#18"/><use y="45.591" xlink:href="#19"/><use y="47.762" xlink:href="#20"/></svg><svg x="4510"><use xlink:href="#a"/><use x="5.996" y="47.737" xlink:href="#b"/><use y="2.171" xlink:href="#1"/><use y="4.342" xlink:href="#5"/><use y="10.855" xlink:href="#6"/><use y="13.026" xlink:href="#7"/><use y="19.539" xlink:href="#10"/><use y="21.71" xlink:href="#11"/><use y="23.881" xlink:href="#12"/><use y="26.052" xlink:href="#13"/><use y="28.223" xlink:href="#14"/><use y="30.394" xlink:href="#13"/><use y="32.565" xlink:href="#15"/><use y="34.736" xlink:href="#16"/><use y="36.907" xlink:href="#17"/><use y="41.249" xlink:href="#18"/><use y="45.591" xlink:href="#19"/><use y="47.762" xlink:href="#20"/></svg><svg x="4592"><use xlink:href="#a"/><use x="-.004" y="47.737" xlink:href="#b"/><use y="0" xlink:href="#1"/><use y="2.171" xlink:href="#5"/><use y="8.684" xlink:href="#6"/><use y="10.855" xlink:href="#7"/><use y="17.368" xlink:href="#10"/><use y="19.539" xlink:href="#11"/><use y="21.71" xlink:href="#12"/><use y="23.881" xlink:href="#13"/><use y="26.052" xlink:href="#14"/><use y="28.223" xlink:href="#13"/><use y="30.394" xlink:href="#15"/><use y="32.565" xlink:href="#16"/><use y="34.736" xlink:href="#17"/><use y="39.078" xlink:href="#18"/><use y="43.42" xlink:href="#19"/><use y="45.591" xlink:href="#20"/></svg><svg x="4674"><use xlink:href="#a"/><use x="-.004" y="47.737" xlink:href="#b"/><use y="0" xlink:href="#1"/><use y="2.171" xlink:href="#5"/><use y="8.684" xlink:href="#6"/><use y="10.855" xlink:href="#7"/><use y="17.368" xlink:href="#10"/><use y="19.539" xlink:href="#11"/><use y="21.71" xlink:href="#12"/><use y="23.881" xlink:href="#13"/><use y="26.052" xlink:href="#14"/><use y="28.223" xlink:href="#13"/><use y="30.394" xlink:href="#15"/><use y="32.565" xlink:href="#16"/><use y="34.736" xlink:href="#17"/><use y="39.078" xlink:href="#18"/><use y="43.42" xlink:href="#19"/><use y="45.591" xlink:href="#20"/></svg></svg></g></g></svg></svg>